<svg xmlns="http://www.w3.org/2000/svg" xmlns:xlink="http://www.w3.org/1999/xlink" width="859.349" height="719" viewBox="0 0 859.349 719">
  <defs>
    <linearGradient id="linear-gradient" x1="0.5" y1="1" x2="0.5" gradientUnits="objectBoundingBox">
      <stop offset="0" stop-color="gray" stop-opacity="0.251"/>
      <stop offset="0.54" stop-color="gray" stop-opacity="0.122"/>
      <stop offset="1" stop-color="gray" stop-opacity="0.102"/>
    </linearGradient>
  </defs>
  <g id="Group_87" data-name="Group 87" transform="translate(413 -628)">
    <g id="Group_85" data-name="Group 85" transform="translate(-413.051 628)">
      <g id="Group_78" data-name="Group 78" opacity="0.5">
        <path id="Path_139" data-name="Path 139" d="M602,79.05,324,250.13S324,603,602,795.44C880,603,880,250.13,880,250.13Z" transform="translate(-170.6 -79)" fill="url(#linear-gradient)"/>
      </g>
      <path id="Path_140" data-name="Path 140" d="M602,89.75l-269.7,166s0,342.31,269.7,529c269.7-186.72,269.7-529,269.7-529Z" transform="translate(-170.6 -79)" fill="#fff"/>
      <path id="Path_141" data-name="Path 141" d="M603.61,89.75,599,92.58V781.51c1.53,1.08,3.06,2.17,4.61,3.24,269.7-186.72,269.7-529,269.7-529Z" transform="translate(-170.6 -79)" fill="#ff146c" opacity="0.04"/>
      <circle id="Ellipse_17" data-name="Ellipse 17" cx="6" cy="6" r="6" transform="translate(742.4 248)" fill="#f55f44" opacity="0.5"/>
      <circle id="Ellipse_18" data-name="Ellipse 18" cx="6" cy="6" r="6" transform="translate(115.4 677)" fill="#f55f44" opacity="0.5"/>
      <circle id="Ellipse_19" data-name="Ellipse 19" cx="6" cy="6" r="6" transform="translate(844.4 479)" fill="#f55f44" opacity="0.5"/>
      <path id="Path_173" data-name="Path 173" d="M874.89,156a3.67,3.67,0,0,1-2-4.44,1.771,1.771,0,0,0,.08-.41h0a1.84,1.84,0,0,0-3.31-1.22h0a1.77,1.77,0,0,0-.2.36,3.67,3.67,0,0,1-4.44,2,1.769,1.769,0,0,0-.41-.08h0a1.84,1.84,0,0,0-1.22,3.31h0a1.769,1.769,0,0,0,.36.2,3.67,3.67,0,0,1,2,4.44,1.768,1.768,0,0,0-.08.41h0A1.84,1.84,0,0,0,869,161.8h0a1.77,1.77,0,0,0,.2-.36,3.67,3.67,0,0,1,4.44-2,1.77,1.77,0,0,0,.41.08h0a1.84,1.84,0,0,0,1.22-3.31h0a1.769,1.769,0,0,0-.38-.21Z" transform="translate(-170.6 -79)" fill="#4d8af0" opacity="0.5"/>
      <path id="Path_174" data-name="Path 174" d="M974.89,784a3.67,3.67,0,0,1-2-4.44,1.77,1.77,0,0,0,.08-.41h0a1.84,1.84,0,0,0-3.31-1.22h0a1.77,1.77,0,0,0-.2.36,3.67,3.67,0,0,1-4.44,2,1.768,1.768,0,0,0-.41-.08h0a1.84,1.84,0,0,0-1.22,3.31h0a1.771,1.771,0,0,0,.36.2,3.67,3.67,0,0,1,2,4.44,1.77,1.77,0,0,0-.08.41h0A1.84,1.84,0,0,0,969,789.8h0a1.77,1.77,0,0,0,.2-.36,3.67,3.67,0,0,1,4.44-2,1.771,1.771,0,0,0,.41.08h0a1.84,1.84,0,0,0,1.22-3.31h0A1.77,1.77,0,0,0,974.89,784Z" transform="translate(-170.6 -79)" fill="#4d8af0" opacity="0.5"/>
      <path id="Path_175" data-name="Path 175" d="M182.89,262a3.67,3.67,0,0,1-2-4.44,1.77,1.77,0,0,0,.08-.41h0a1.84,1.84,0,0,0-3.31-1.22h0a1.77,1.77,0,0,0-.2.36,3.67,3.67,0,0,1-4.44,2,1.773,1.773,0,0,0-.41-.08h0a1.84,1.84,0,0,0-1.22,3.31h0a1.77,1.77,0,0,0,.36.2,3.67,3.67,0,0,1,2,4.44,1.77,1.77,0,0,0-.08.41h0A1.84,1.84,0,0,0,177,267.8h0a1.772,1.772,0,0,0,.2-.36,3.67,3.67,0,0,1,4.44-2,1.771,1.771,0,0,0,.41.08h0a1.84,1.84,0,0,0,1.22-3.31h0A1.77,1.77,0,0,0,182.89,262Z" transform="translate(-170.6 -79)" fill="#4d8af0" opacity="0.5"/>
      <circle id="Ellipse_20" data-name="Ellipse 20" cx="6" cy="6" r="6" transform="translate(73.4 278)" fill="#47e6b1" opacity="0.5"/>
      <circle id="Ellipse_21" data-name="Ellipse 21" cx="6" cy="6" r="6" transform="translate(847.4 326)" fill="#47e6b1" opacity="0.5"/>
      <g id="Group_81" data-name="Group 81" opacity="0.5">
        <rect id="Rectangle_22" data-name="Rectangle 22" width="3" height="17" transform="translate(583.4)" fill="#47e6b1"/>
        <rect id="Rectangle_23" data-name="Rectangle 23" width="3" height="17" transform="translate(593.4 7) rotate(90)" fill="#47e6b1"/>
      </g>
      <g id="Group_82" data-name="Group 82" opacity="0.5">
        <rect id="Rectangle_24" data-name="Rectangle 24" width="3" height="17" transform="translate(594.4 666)" fill="#47e6b1"/>
        <rect id="Rectangle_25" data-name="Rectangle 25" width="3" height="17" transform="translate(604.4 673) rotate(90)" fill="#47e6b1"/>
      </g>
      <g id="Group_83" data-name="Group 83" opacity="0.5">
        <rect id="Rectangle_26" data-name="Rectangle 26" width="3" height="17" transform="translate(26.4 702)" fill="#47e6b1"/>
        <rect id="Rectangle_27" data-name="Rectangle 27" width="3" height="17" transform="translate(36.4 709) rotate(90)" fill="#47e6b1"/>
      </g>
      <g id="Group_84" data-name="Group 84" opacity="0.5">
        <rect id="Rectangle_28" data-name="Rectangle 28" width="3" height="17" transform="translate(709.4 396)" fill="#47e6b1"/>
        <rect id="Rectangle_29" data-name="Rectangle 29" width="3" height="17" transform="translate(719.4 403) rotate(90)" fill="#47e6b1"/>
      </g>
      <path id="Path_176" data-name="Path 176" d="M795.61,123.02l6.44,5.9,9.13-13.42,3.22,2.69-12.35,16.1-9.13-10.2Z" fill="#47e6b1" opacity="0.5"/>
    </g>
    <g id="Group_86" data-name="Group 86" transform="translate(-560 750.849)">
      <ellipse id="Ellipse_1" data-name="Ellipse 1" cx="183.577" cy="31.404" rx="183.577" ry="31.404" transform="translate(304.98 458.83)" fill="#d2ebff" opacity="0.56"/>
      <path id="Path_2" data-name="Path 2" d="M468.385,464.07C404,450.513,354.942,402.873,326.5,326.306c-20.256-54.543-23.008-105.015-23.116-107.134l-1.106-21.833,172.144-60.846,172.143,60.846-1.106,21.833c-.108,2.119-2.859,52.591-23.116,107.134-28.438,76.568-77.5,124.207-141.881,137.764l-6.04,1.273Z" transform="translate(3.527 7.496)" fill="#89caf7"/>
      <path id="Path_3" data-name="Path 3" d="M589.576,199.451,453.229,151.257v0l0,0v0L316.878,199.451s9.233,182.615,136.349,209.385h0C580.343,382.066,589.576,199.451,589.576,199.451Z" transform="translate(24.725 28.936)" fill="#d2ebff"/>
      <g id="Group_11" data-name="Group 11" transform="translate(463.313 266.224)">
        <path id="Path_4" data-name="Path 4" d="M372.339,254l62.518-8.931h54.961l49.121,9.618-84.5,42.595Z" transform="translate(-358.038 -101.029)" fill="#47e6b1"/>
        <path id="Path_5" data-name="Path 5" d="M495.576,293.649s-110.609-60.8-123.663-40.878c-18.856,28.783,9.961,43.282,112.671,70.763Z" transform="translate(-366.508 -95.674)" fill="#47e6b1"/>
        <g id="Group_6" data-name="Group 6" transform="translate(117.079 200.847)">
          <path id="Path_6" data-name="Path 6" d="M456.726,295.749h0a12.962,12.962,0,0,0-7.019-16.936l-25.541-10.577-9.917,23.955,25.541,10.575A12.963,12.963,0,0,0,456.726,295.749Z" transform="translate(-414.249 -268.236)" fill="#47e6b1"/>
          <path id="Path_7" data-name="Path 7" d="M421.617,269.811l19.325,8a8.783,8.783,0,1,1-6.722,16.23l-19.325-8Z" transform="translate(-413.311 -265.949)" fill="#489bff"/>
          <path id="Path_8" data-name="Path 8" d="M415.922,276.356l25.541,10.577a12.938,12.938,0,0,0,15.9-5.084,12.776,12.776,0,0,1-17.569,9.123L414.249,280.4Z" transform="translate(-414.249 -256.443)" fill="#063272" opacity="0.45"/>
          <path id="Path_9" data-name="Path 9" d="M418.423,282.716l4.081-9.861a.981.981,0,0,1,1.278-.527h0a.977.977,0,0,1,.527,1.275l-4.083,9.858a.978.978,0,0,1-1.275.53h0A.979.979,0,0,1,418.423,282.716Z" transform="translate(-408.295 -262.401)" fill="#e6e6e6"/>
          <path id="Path_10" data-name="Path 10" d="M420.873,283.731l4.083-9.861a.979.979,0,0,1,1.275-.527h0a.979.979,0,0,1,.53,1.275l-4.083,9.861a.979.979,0,0,1-1.275.527h0A.98.98,0,0,1,420.873,283.731Z" transform="translate(-404.734 -260.927)" fill="#e6e6e6"/>
          <path id="Path_11" data-name="Path 11" d="M423.571,284.849l4.083-9.861a.982.982,0,0,1,1.275-.53h0a.982.982,0,0,1,.53,1.275l-4.083,9.861a.978.978,0,0,1-1.275.53h0A.978.978,0,0,1,423.571,284.849Z" transform="translate(-400.818 -259.305)" fill="#e6e6e6"/>
        </g>
        <path id="Path_12" data-name="Path 12" d="M520.64,268.739c-1.7-5.844-10.165-15.739-17.691-36.033-7.823-21.1-41.165-23.371-41.165-23.371l-12.944,6.928L435.9,209.335s-33.342,2.273-41.168,23.371C387.2,253,378.739,262.895,377.037,268.739s7.485,43.659,33.852,49.013h75.9C513.156,312.4,522.342,274.58,520.64,268.739Z" transform="translate(-351.5 -152.935)" fill="#ff146c"/>
        <g id="Group_9" data-name="Group 9" transform="translate(71.082)">
          <g id="Group_7" data-name="Group 7" transform="translate(13.392 56.538)">
            <path id="Path_13" data-name="Path 13" d="M428.207,209.391v10.373s-2.393,11.582-13.677,13.51a17.609,17.609,0,0,1-13.576-13.51V209.391Z" transform="translate(-400.954 -209.391)" fill="#f49290"/>
          </g>
          <g id="Group_8" data-name="Group 8">
            <path id="Path_14" data-name="Path 14" d="M396.414,222.505s-3.858-24.239,5.363-27.184c2.511-.8.677-8.806,14.712-8.9,19.163-.135,34.262-2.71,31.746,36.422Z" transform="translate(-395.318 -186.337)" fill="#073a93"/>
            <path id="Path_15" data-name="Path 15" d="M408.736,206.1a6.621,6.621,0,1,0-6.621,6.621A6.62,6.62,0,0,0,408.736,206.1Z" transform="translate(-395.493 -167.252)" fill="#ffb5b1"/>
            <path id="Path_16" data-name="Path 16" d="M425.182,206.1a6.621,6.621,0,1,0-6.621,6.621A6.62,6.62,0,0,0,425.182,206.1Z" transform="translate(-371.608 -167.252)" fill="#ffb5b1"/>
            <path id="Path_17" data-name="Path 17" d="M441.212,202.818l-.034-.012v0h-.015c-.27-.086-5.552-1.842-6.563-8.789l-2.9.814a44.285,44.285,0,0,1-24.519-.233l-2.313-.581a10.516,10.516,0,0,1-6.854,8.789h-.054l-.184,10.729c0,6.244,2.636,13.831,6.857,19.67a18.445,18.445,0,0,0,29.7,0c4.22-5.839,6.854-13.427,6.854-19.67l-.007-10.682Z" transform="translate(-392.174 -175.189)" fill="#ffb5b1"/>
          </g>
        </g>
        <rect id="Rectangle_4" data-name="Rectangle 4" width="83.816" height="55.877" rx="2.866" transform="translate(56.103 116.449)" fill="#d2ebff"/>
        <circle id="Ellipse_2" data-name="Ellipse 2" cx="8.702" cy="8.702" r="8.702" transform="translate(89.051 135.113)" fill="#89caf7"/>
        <path id="Path_18" data-name="Path 18" d="M392.37,293.649s110.609-60.8,123.663-40.878c18.856,28.783-9.964,43.282-112.671,70.763Z" transform="translate(-328.946 -95.674)" fill="#47e6b1"/>
        <g id="Group_10" data-name="Group 10" transform="translate(31.946 200.847)">
          <path id="Path_19" data-name="Path 19" d="M380.524,295.749h0a12.96,12.96,0,0,1,7.019-16.936l25.539-10.577L423,292.191,397.46,302.765A12.963,12.963,0,0,1,380.524,295.749Z" transform="translate(-379.534 -268.236)" fill="#47e6b1"/>
          <path id="Path_20" data-name="Path 20" d="M415.26,286.041l-19.325,8a8.783,8.783,0,1,1-6.722-16.23l19.325-8Z" transform="translate(-373.377 -265.949)" fill="#489bff"/>
          <path id="Path_21" data-name="Path 21" d="M421.118,276.356l-25.541,10.577a12.938,12.938,0,0,1-15.9-5.084,12.793,12.793,0,0,0,.633,2.107,12.963,12.963,0,0,0,16.936,7.016L422.79,280.4Z" transform="translate(-379.323 -256.443)" fill="#063272" opacity="0.45"/>
          <path id="Path_22" data-name="Path 22" d="M396.659,282.716l-4.083-9.861a.978.978,0,0,0-1.275-.527h0a.977.977,0,0,0-.527,1.275l4.083,9.858a.976.976,0,0,0,1.275.53h0A.979.979,0,0,0,396.659,282.716Z" transform="translate(-363.32 -262.401)" fill="#e6e6e6"/>
          <path id="Path_23" data-name="Path 23" d="M394.207,283.731l-4.081-9.861a.979.979,0,0,0-1.275-.527h0a.977.977,0,0,0-.53,1.275l4.083,9.861a.979.979,0,0,0,1.275.527h0A.979.979,0,0,0,394.207,283.731Z" transform="translate(-366.881 -260.927)" fill="#e6e6e6"/>
          <path id="Path_24" data-name="Path 24" d="M391.512,284.849l-4.083-9.861a.982.982,0,0,0-1.275-.53h0a.978.978,0,0,0-.53,1.275l4.083,9.861a.978.978,0,0,0,1.275.53h0A.982.982,0,0,0,391.512,284.849Z" transform="translate(-370.798 -259.305)" fill="#e6e6e6"/>
        </g>
      </g>
      <g id="Group_16" data-name="Group 16" transform="translate(299.854 277.837)">
        <g id="Group_14" data-name="Group 14">
          <g id="Group_12" data-name="Group 12" transform="translate(36.136 10.851)">
            <path id="Path_25" data-name="Path 25" d="M336.565,326.78S307.262,280,316.33,273.22s17.961,20.759,22.6,16.343-16.166-43.755-6.342-52.216,9.091,20.266,17.434,25.6-4.515-39.147,5.469-46.1,14.793,15.18,14.793,15.18,11.07-44.049,25.956-35.415-22.822,52.986-13.969,51.465,17.949-16.49,25.63-6.4-42.62,35.768-34.556,35.108,22.351-10.663,24.83-1.749-40.815,24.994-36.329,28.08,27.116-14.39,30.684-1.525S345.553,334.966,336.565,326.78Z" transform="translate(-314.589 -195.497)" fill="#3ad29f"/>
            <path id="Path_26" data-name="Path 26" d="M322.1,335.11A152.89,152.89,0,0,0,335.653,305.7c1.854-5.459,3.436-11.109,4.969-16.573.7-2.489,1.4-4.978,2.121-7.458a361.156,361.156,0,0,1,33.909-79.331l.571.331a360.628,360.628,0,0,0-33.847,79.184c-.723,2.479-1.422,4.966-2.119,7.45-1.533,5.474-3.119,11.131-4.978,16.607a153.733,153.733,0,0,1-13.613,29.541Z" transform="translate(-303.682 -185.562)" fill="#d2ebff"/>
            <path id="Path_27" data-name="Path 27" d="M339.134,239.883a.332.332,0,0,1-.125-.172,149.733,149.733,0,0,1-6.626-31.044.33.33,0,0,1,.657-.066,149.3,149.3,0,0,0,6.594,30.907.33.33,0,0,1-.211.417A.342.342,0,0,1,339.134,239.883Z" transform="translate(-288.748 -176.895)" fill="#d2ebff"/>
            <path id="Path_28" data-name="Path 28" d="M333.541,239.213a.4.4,0,0,1-.081-.076.332.332,0,0,1,.074-.461c9.084-6.636,18.476-13.5,28.545-18.981a25.072,25.072,0,0,1,6-2.555.329.329,0,1,1,.155.64,24.584,24.584,0,0,0-5.837,2.5c-10.03,5.461-19.406,12.311-28.472,18.932A.328.328,0,0,1,333.541,239.213Z" transform="translate(-287.272 -164.077)" fill="#d2ebff"/>
            <path id="Path_29" data-name="Path 29" d="M341.518,257.844a.379.379,0,0,1-.088-.088,133.432,133.432,0,0,1-12.169-21.8,168.9,168.9,0,0,1-5.861-17.5.33.33,0,0,1,.633-.186,168.553,168.553,0,0,0,5.837,17.436,132.711,132.711,0,0,0,12.11,21.684.33.33,0,0,1-.461.456Z" transform="translate(-301.812 -162.769)" fill="#d2ebff"/>
            <path id="Path_30" data-name="Path 30" d="M330.825,240.521a.33.33,0,0,1,.3-.581,5.634,5.634,0,0,0,2.96.02,49.956,49.956,0,0,0,7.826-2.428c.473-.177.944-.351,1.417-.522,7.485-2.734,15.3-4.819,22.856-6.835a.33.33,0,0,1,.169.638c-7.541,2.013-15.342,4.093-22.8,6.815l-1.413.522a50.174,50.174,0,0,1-7.933,2.457,6.317,6.317,0,0,1-3.308-.047A.264.264,0,0,1,330.825,240.521Z" transform="translate(-291.216 -145.148)" fill="#d2ebff"/>
            <path id="Path_31" data-name="Path 31" d="M342.135,265.717c-8.757-6.023-18.795-22.25-24.73-34.318a.329.329,0,0,1,.591-.289c5.9,11.995,15.859,28.114,24.511,34.063a.33.33,0,0,1-.373.544Z" transform="translate(-310.548 -144.042)" fill="#d2ebff"/>
            <path id="Path_32" data-name="Path 32" d="M327.907,250.7c-.078-.054-.154-.113-.231-.174a.33.33,0,0,1,.419-.51c1.238,1,3.095.689,4.922.189l31.962-8.753a.329.329,0,1,1,.174.635l-31.962,8.753C331.3,251.359,329.354,251.692,327.907,250.7Z" transform="translate(-295.754 -128.771)" fill="#d2ebff"/>
          </g>
          <g id="Group_13" data-name="Group 13">
            <path id="Path_33" data-name="Path 33" d="M354.074,332.35s-50.72-21.973-47.085-32.712,26.6,6.938,27.92.66-38.164-26.929-34.858-39.485,19,11.565,28.911,11.234-25.939-29.737-21.642-41.138,20.816,4.132,20.816,4.132-15.859-42.625,1.322-43.946,11.234,56.667,17.679,50.389,5.452-23.79,17.512-19.825-14.869,53.694-8.591,48.571,12.389-21.478,19.494-15.528-19.494,43.78-14.042,43.78,14.209-27.26,24.45-18.667S366.134,334,354.074,332.35Z" transform="translate(-299.854 -191.072)" fill="#47e6b1"/>
            <path id="Path_34" data-name="Path 34" d="M342.953,338.89a153.057,153.057,0,0,0-5.508-31.957c-1.567-5.557-3.465-11.119-5.3-16.495-.836-2.45-1.672-4.9-2.482-7.357a361.479,361.479,0,0,1-17.034-84.695l.657-.052a361.069,361.069,0,0,0,17,84.54c.809,2.455,1.646,4.9,2.482,7.35,1.839,5.385,3.74,10.955,5.314,16.527a153.9,153.9,0,0,1,5.53,32.1Z" transform="translate(-281.303 -180.523)" fill="#d2ebff"/>
            <path id="Path_35" data-name="Path 35" d="M329.554,232.434a.346.346,0,0,1-.2-.066,150,150,0,0,1-23.079-21.858.33.33,0,1,1,.5-.427,149.356,149.356,0,0,0,22.979,21.757.329.329,0,0,1,.061.463A.324.324,0,0,1,329.554,232.434Z" transform="translate(-290.644 -163.631)" fill="#d2ebff"/>
            <path id="Path_36" data-name="Path 36" d="M317.342,246.624a.344.344,0,0,1-.11-.017.331.331,0,0,1-.2-.422c3.73-10.629,7.585-21.62,12.782-31.856a25.248,25.248,0,0,1,3.5-5.513.335.335,0,0,1,.468-.024.33.33,0,0,1,.024.466,24.494,24.494,0,0,0-3.4,5.371c-5.177,10.2-9.027,21.169-12.75,31.775A.331.331,0,0,1,317.342,246.624Z" transform="translate(-274.935 -165.458)" fill="#d2ebff"/>
            <path id="Path_37" data-name="Path 37" d="M341.713,245.9a.35.35,0,0,1-.123-.022,133.573,133.573,0,0,1-22.41-11.08,169.814,169.814,0,0,1-14.768-11.117.333.333,0,0,1-.047-.466.328.328,0,0,1,.464-.047,169.144,169.144,0,0,0,14.709,11.075,133.155,133.155,0,0,0,22.3,11.021.329.329,0,0,1-.123.635Z" transform="translate(-293.408 -144.562)" fill="#d2ebff"/>
            <path id="Path_38" data-name="Path 38" d="M319.782,249.525a.33.33,0,0,1-.083-.65,5.638,5.638,0,0,0,2.455-1.665,49.717,49.717,0,0,0,5.079-6.442c.292-.412.581-.824.873-1.236,4.625-6.5,9.89-12.654,14.979-18.606a.331.331,0,0,1,.5.429c-5.081,5.94-10.334,12.083-14.945,18.559l-.868,1.233a50.184,50.184,0,0,1-5.152,6.528,6.316,6.316,0,0,1-2.756,1.839A.323.323,0,0,1,319.782,249.525Z" transform="translate(-271.389 -147.881)" fill="#d2ebff"/>
            <path id="Path_39" data-name="Path 39" d="M346.69,252.049c-10.643,0-28.133-7.693-39.878-14.283a.331.331,0,0,1,.326-.576c11.673,6.55,29.036,14.2,39.552,14.2a.331.331,0,0,1,0,.662Z" transform="translate(-289.991 -124.153)" fill="#d2ebff"/>
            <path id="Path_40" data-name="Path 40" d="M323.574,260.224c-.1,0-.191,0-.289-.015a.33.33,0,0,1-.3-.356.337.337,0,0,1,.358-.3c1.592.123,2.945-1.187,4.169-2.636l21.4-25.357a.33.33,0,1,1,.505.424l-21.4,25.357C326.745,258.844,325.33,260.224,323.574,260.224Z" transform="translate(-266.264 -132.441)" fill="#d2ebff"/>
          </g>
        </g>
        <g id="Group_15" data-name="Group 15" transform="translate(23.695 134.684)">
          <path id="Path_41" data-name="Path 41" d="M312.81,251.872l8.1,50.124a14.677,14.677,0,0,0,14.486,12.333h24.676A14.677,14.677,0,0,0,374.556,302l8.1-50.124Z" transform="translate(-304.732 -237.452)" fill="#d2ebff"/>
          <path id="Path_42" data-name="Path 42" d="M382.653,251.872H312.81l1.121,6.945h53.846L360.8,302a14.674,14.674,0,0,1-14.486,12.333h13.755A14.675,14.675,0,0,0,374.556,302l6.977-43.179h0Z" transform="translate(-304.732 -237.452)" fill="#accfe5"/>
          <path id="Path_43" data-name="Path 43" d="M388.217,245.992h-71.4a7.321,7.321,0,0,0-7.3,7.3h0a7.319,7.319,0,0,0,7.3,7.3h71.4a7.319,7.319,0,0,0,7.3-7.3h0A7.321,7.321,0,0,0,388.217,245.992Z" transform="translate(-309.516 -245.992)" fill="#d2ebff"/>
        </g>
      </g>
      <g id="Group_19" data-name="Group 19" transform="translate(523.377 203.508)">
        <rect id="Rectangle_5" data-name="Rectangle 5" width="158.586" height="48.984" rx="3.02" fill="#ffaa45"/>
        <g id="Group_17" data-name="Group 17" transform="translate(11.494 6.889)">
          <rect id="Rectangle_6" data-name="Rectangle 6" width="25.913" height="19.675" rx="1.255" transform="translate(0 15.06)" fill="#073a93"/>
          <path id="Path_44" data-name="Path 44" d="M415.242,176.405H412.8v-3.872a6.52,6.52,0,0,0-13.039,0v3.872h-2.445v-3.872a8.963,8.963,0,0,1,17.927,0Z" transform="translate(-393.323 -163.572)" fill="#073a93"/>
          <path id="Path_45" data-name="Path 45" d="M405.322,174.285a2.733,2.733,0,1,0-4.081,2.364l-.944,5.385h4.583l-.944-5.385A2.719,2.719,0,0,0,405.322,174.285Z" transform="translate(-389.632 -151.984)" fill="#ffaa45"/>
        </g>
        <g id="Group_18" data-name="Group 18" transform="translate(61.635 21.475)">
          <circle id="Ellipse_3" data-name="Ellipse 3" cx="4.484" cy="4.484" r="4.484" fill="#073a93"/>
          <circle id="Ellipse_4" data-name="Ellipse 4" cx="4.484" cy="4.484" r="4.484" transform="translate(17.114)" fill="#073a93"/>
          <path id="Path_46" data-name="Path 46" d="M439.058,174a4.484,4.484,0,1,1-4.483-4.483A4.485,4.485,0,0,1,439.058,174Z" transform="translate(-395.862 -169.52)" fill="#073a93"/>
          <path id="Path_47" data-name="Path 47" d="M446.037,174a4.484,4.484,0,1,1-4.485-4.483A4.486,4.486,0,0,1,446.037,174Z" transform="translate(-385.726 -169.52)" fill="#073a93"/>
          <path id="Path_48" data-name="Path 48" d="M453.014,174a4.483,4.483,0,1,1-4.483-4.483A4.484,4.484,0,0,1,453.014,174Z" transform="translate(-375.59 -169.52)" fill="#073a93"/>
        </g>
      </g>
      <g id="Group_21" data-name="Group 21" transform="translate(321.716 131.331)">
        <rect id="Rectangle_7" data-name="Rectangle 7" width="124.412" height="74.99" rx="3.118" fill="#489bff"/>
        <rect id="Rectangle_8" data-name="Rectangle 8" width="124.412" height="16.884" transform="translate(0 20.912)" fill="#073a93"/>
        <g id="Group_20" data-name="Group 20" transform="translate(81.003 47.604)">
          <path id="Path_49" data-name="Path 49" d="M375.568,150.743H344.614a2.813,2.813,0,0,0-2.815,2.813h0a2.815,2.815,0,0,0,2.815,2.815h30.954a2.813,2.813,0,0,0,2.813-2.815h0A2.811,2.811,0,0,0,375.568,150.743Z" transform="translate(-341.799 -150.743)" fill="#073a93"/>
          <path id="Path_50" data-name="Path 50" d="M365.569,155.23H351.5a2.815,2.815,0,0,0-2.815,2.813h0a2.815,2.815,0,0,0,2.815,2.815h14.069a2.813,2.813,0,0,0,2.813-2.815h0A2.813,2.813,0,0,0,365.569,155.23Z" transform="translate(-331.8 -144.226)" fill="#073a93"/>
        </g>
      </g>
    </g>
  </g>
</svg>
