<svg id="Group_1" data-name="Group 1" xmlns="http://www.w3.org/2000/svg" width="201.002" height="200" viewBox="0 0 201.002 200">
  <path id="Path_1" data-name="Path 1" d="M57.44,190.1a4,4,0,0,1-3.54-5.86,107.491,107.491,0,0,0,11.35-32.87,139.693,139.693,0,0,0-.69-44.96A33.624,33.624,0,0,1,64,100a35.968,35.968,0,0,1,8.93-23.73,4,4,0,1,1,6.01,5.28A27.948,27.948,0,0,0,72,100a26.058,26.058,0,0,0,.43,5.01,147.549,147.549,0,0,1,.72,47.61,115.125,115.125,0,0,1-12.17,35.33,3.979,3.979,0,0,1-3.54,2.15" fill="#fff" fill-rule="evenodd"/>
  <path id="Path_2" data-name="Path 2" d="M88.84,199.34a4,4,0,0,1-3.62-5.69c1.94-4.17,3.74-8.55,5.35-13.02a4,4,0,0,1,7.53,2.71c-1.7,4.7-3.59,9.31-5.63,13.69a4.01,4.01,0,0,1-3.63,2.31m10.19-28.71a4.107,4.107,0,0,1-.98-.12,4.009,4.009,0,0,1-2.91-4.85c1.02-4.05,1.87-8.13,2.51-12.13a148.355,148.355,0,0,0-1.53-52.57,4,4,0,1,1,7.76-1.92,153.522,153.522,0,0,1,1.67,55.77c-.68,4.22-1.57,8.53-2.65,12.8a3.99,3.99,0,0,1-3.87,3.02M106.15,200a4,4,0,0,1-3.72-5.47,202.894,202.894,0,0,0,11.22-41c.28-1.72.53-3.49.73-5.27a4,4,0,0,1,7.95.9c-.22,1.91-.48,3.82-.78,5.65a211.045,211.045,0,0,1-11.68,42.66,4,4,0,0,1-3.72,2.53" fill="#fff" fill-rule="evenodd"/>
  <path id="Path_3" data-name="Path 3" d="M72.34,195.93a4,4,0,0,1-3.57-5.81,132.084,132.084,0,0,0,12.38-36.54c2.65-15.33,2.37-32.63-.83-50.03A20.287,20.287,0,0,1,80,100a20,20,0,0,1,39.48-4.54,180.28,180.28,0,0,1,3.77,37.3,3.99,3.99,0,0,1-4,3.99h-.01a4.005,4.005,0,0,1-3.99-4.01,174.431,174.431,0,0,0-3.57-35.48A12,12,0,0,0,88,100a11.529,11.529,0,0,0,.19,2.12c3.36,18.3,3.66,36.58.84,52.82A140.254,140.254,0,0,1,75.9,193.75a4,4,0,0,1-3.56,2.18m110.13-42.74c-.07,0-.15-.01-.22-.01a4.005,4.005,0,0,1-3.78-4.22c.37-6.54.49-13.32.36-20.14a4,4,0,0,1,3.93-4.07h.07a4,4,0,0,1,4,3.93c.13,7.01.01,13.99-.37,20.73a4,4,0,0,1-3.99,3.78" fill="#fff" fill-rule="evenodd"/>
  <path id="Path_4" data-name="Path 4" d="M19.7,156.63a4,4,0,0,1-3.72-5.46,52.788,52.788,0,0,0,2.25-7.2c2.15-9.27.26-22.72-1.06-29.92A85.023,85.023,0,0,1,16,100,84.085,84.085,0,0,1,52.43,30.75a4,4,0,0,1,4.54,6.59,76.156,76.156,0,0,0-31.92,75.33c1.42,7.75,3.45,22.44.97,33.11a59.77,59.77,0,0,1-2.59,8.31,4.017,4.017,0,0,1-3.73,2.54" fill="#fff" fill-rule="evenodd"/>
  <path id="Path_5" data-name="Path 5" d="M30.91,170.7a3.99,3.99,0,0,1-3.59-5.75,74.159,74.159,0,0,0,6.35-19c1.89-10.31,1.61-21.91-.86-35.48l-.02-.11A68.9,68.9,0,0,1,32,100a68.065,68.065,0,0,1,84.92-65.88,4,4,0,0,1-1.99,7.75A60.032,60.032,0,0,0,40.69,109.1c2.64,14.51,2.92,27.04.85,38.29a82.388,82.388,0,0,1-7.03,21.07,4.007,4.007,0,0,1-3.6,2.24" fill="#fff" fill-rule="evenodd"/>
  <path id="Path_6" data-name="Path 6" d="M163.81,175.69a4.008,4.008,0,0,1-3.94-4.68c.57-3.35,1.08-6.75,1.5-10.11,4.52-35.82-1.95-69.43-2.02-69.77l-.03-.17a60.3,60.3,0,0,0-30.51-43.6,4,4,0,0,1,3.85-7.02,68.414,68.414,0,0,1,34.56,49.33c.46,2.38,6.71,35.66,2.09,72.24-.44,3.47-.97,6.99-1.56,10.45a4,4,0,0,1-3.94,3.33" fill="none" stroke="#fff" stroke-width="2"/>
  <path id="Path_7" data-name="Path 7" d="M8.9,134.37a4,4,0,0,1-3.79-2.74A100.51,100.51,0,0,1,4.04,71.78a4,4,0,0,1,7.67,2.25,92.616,92.616,0,0,0,.99,55.08,3.986,3.986,0,0,1-3.8,5.26m4.74-72.35a3.9,3.9,0,0,1-1.75-.41,4,4,0,0,1-1.85-5.34A99.533,99.533,0,0,1,98.88,0h.04a4,4,0,0,1,.05,8A91.556,91.556,0,0,0,17.24,59.77a4.016,4.016,0,0,1-3.6,2.25" fill="#fff" fill-rule="evenodd"/>
  <path id="Path_8" data-name="Path 8" d="M196,101.26a4,4,0,0,1-4-3.89A91.911,91.911,0,0,0,114.26,9.1a4,4,0,0,1,1.23-7.91A99.929,99.929,0,0,1,200,97.14a4,4,0,0,1-3.89,4.11.41.41,0,0,1-.11.01" fill="none" stroke="#fff" stroke-width="2"/>
  <path id="Path_9" data-name="Path 9" d="M144.14,189.25a3.944,3.944,0,0,1-1.01-.13,3.991,3.991,0,0,1-2.86-4.88,215.039,215.039,0,0,0,6.01-33.47c2.3-23.51-.46-45.44-3.19-59.69a42.743,42.743,0,0,0-1.36-5.07,4,4,0,1,1,7.58-2.55,51.125,51.125,0,0,1,1.63,6.06c2.84,14.83,5.7,37.57,3.31,62.03a223.927,223.927,0,0,1-6.24,34.71,4,4,0,0,1-3.87,2.99" fill="#fff" fill-rule="evenodd"/>
  <path id="Path_10" data-name="Path 10" d="M54.34,146.02c-.15,0-.29-.01-.44-.02a4,4,0,0,1-3.54-4.41,103.059,103.059,0,0,0-1.34-31.29l-.03-.14A52.056,52.056,0,0,1,100,48a51.685,51.685,0,0,1,41.05,20.08,4,4,0,1,1-6.31,4.91A44,44,0,0,0,56,100a44.385,44.385,0,0,0,.83,8.54,110.932,110.932,0,0,1,1.48,33.91,4,4,0,0,1-3.97,3.57" fill="none" stroke="#fff" stroke-width="2"/>
  <path id="Path_11" data-name="Path 11" d="M43.4,181.63a4.016,4.016,0,0,1-3.55-5.84,102.333,102.333,0,0,0,7.6-19.11,4,4,0,0,1,7.71,2.16,110.854,110.854,0,0,1-8.2,20.61,4.008,4.008,0,0,1-3.56,2.18" fill="#fff" fill-rule="evenodd"/>
  <path id="Path_12" data-name="Path 12" d="M124.95,196.78a3.888,3.888,0,0,1-1.29-.22,4,4,0,0,1-2.5-5.07,194.428,194.428,0,0,0,9.09-40.47,189.471,189.471,0,0,0-2.82-56.79A28.064,28.064,0,0,0,90.36,73.7a4,4,0,1,1-2.75-7.51A36.055,36.055,0,0,1,135.26,92.6a197.616,197.616,0,0,1,2.94,59.3,203.141,203.141,0,0,1-9.46,42.16,4,4,0,0,1-3.79,2.72" fill="none" stroke="#fff" stroke-width="2"/>
  <path id="Path_13" data-name="Path 13" d="M182.1,116.74a4,4,0,0,1-3.98-3.71c-1.02-14.03-2.7-23.21-2.72-23.3l-.03-.18A76.417,76.417,0,0,0,100,24a75.5,75.5,0,0,0-29.81,6.07,4,4,0,0,1-3.14-7.36A83.545,83.545,0,0,1,100,16a84.463,84.463,0,0,1,83.29,72.36c.19,1.07,1.8,10.18,2.8,24.09a4,4,0,0,1-3.7,4.28c-.09,0-.19.01-.29.01" fill="none" stroke="#fff" stroke-width="2"/>
</svg>
